<svg xmlns="http://www.w3.org/2000/svg" viewBox="0 0 20 25" x="0px" y="0px"><defs><style>.cls-1{fill:none;}.cls-2{fill:#010101;}</style></defs><title>Shooter</title><g data-name="Layer 2"><g data-name="Layer 1"><path class="cls-1" d="M15,10a1,1,0,0,1,1-1h.92A7,7,0,0,0,11,3.08V4A1,1,0,0,1,9,4V3.08A7,7,0,0,0,3.08,9H4a1,1,0,0,1,0,2H3.08A7,7,0,0,0,9,16.92V16a1,1,0,0,1,2,0v.92A7,7,0,0,0,16.92,11H16A1,1,0,0,1,15,10Zm-5,2a2,2,0,1,1,2-2A2,2,0,0,1,10,12Z"/><circle class="cls-2" cx="10" cy="10" r="2"/><path class="cls-2" d="M19,9h-.06A9,9,0,0,0,11,1.06V1A1,1,0,0,0,9,1v.06A9,9,0,0,0,1.06,9H1a1,1,0,0,0,0,2h.06A9,9,0,0,0,9,18.94V19a1,1,0,0,0,2,0v-.06A9,9,0,0,0,18.94,11H19a1,1,0,0,0,0-2Zm-8,7.92V16a1,1,0,0,0-2,0v.92A7,7,0,0,1,3.08,11H4A1,1,0,0,0,4,9H3.08A7,7,0,0,1,9,3.08V4a1,1,0,0,0,2,0V3.08A7,7,0,0,1,16.92,9H16a1,1,0,0,0,0,2h.92A7,7,0,0,1,11,16.92Z"/></g></g><text x="0" y="35" fill="red" font-size="5px" font-weight="bold" font-family="'Helvetica Neue', Helvetica, Arial-Unicode, Arial, Sans-serif">Created by Roy Charles</text><text x="0" y="40" fill="#000000" font-size="5px" font-weight="bold" font-family="'Helvetica Neue', Helvetica, Arial-Unicode, Arial, Sans-serif">from the Noun Project</text></svg>